<svg width="64" height="64" viewBox="0 0 64 64" fill="none" xmlns="http://www.w3.org/2000/svg">
  <rect width="64" height="64" rx="20" fill="#EEF4FF"/>
  <path d="M18 20.5C18 18.567 19.567 17 21.5 17H31.5C34.2514 17 36.5244 18.1638 38 20.0423C39.4756 18.1638 41.7486 17 44.5 17H46.5C48.433 17 50 18.567 50 20.5V45.5C50 46.8807 48.8807 48 47.5 48H44.5C41.9696 48 39.7268 46.7944 38.3157 44.9306C38.1284 44.6832 37.8716 44.6832 37.6843 44.9306C36.2732 46.7944 34.0304 48 31.5 48H21.5C19.567 48 18 46.433 18 44.5V20.5Z" fill="#135BEC"/>
  <path d="M23 23.5C23 22.6716 23.6716 22 24.5 22H31.5C33.9853 22 36 24.0147 36 26.5V42C34.8909 40.7589 33.2786 40 31.5 40H24.5C23.6716 40 23 39.3284 23 38.5V23.5Z" fill="white"/>
  <path d="M41 22H44C44.8284 22 45.5 22.6716 45.5 23.5V38.5C45.5 39.3284 44.8284 40 44 40H41C39.2214 40 37.6091 40.7589 36.5 42V26.5C36.5 24.0147 38.5147 22 41 22Z" fill="white"/>
</svg>
